<svg xmlns="http://www.w3.org/2000/svg" xmlns:xlink="http://www.w3.org/1999/xlink" width="30.03" height="44.17" viewBox="0 0 858 1262">
  <defs>
    <style>
      .cls-1 {
        fill: #f62727;
        fill-rule: evenodd;
        filter: url(#filter);
      }
    </style>
    <filter id="filter" x="15" y="44" width="786.375" height="1160" filterUnits="userSpaceOnUse">
      <feOffset result="offset" dy="9" in="SourceAlpha"/>
      <feGaussianBlur result="blur" stdDeviation="3"/>
      <feFlood result="flood" flood-color="#11151b"/>
      <feComposite result="composite" operator="in" in2="blur"/>
      <feBlend result="blend" in="SourceGraphic"/>
    </filter>
  </defs>
  <path id="S" class="cls-1" d="M57.116,337.631V549.873Q82.954,640.308,137.4,678.142t143.033,37.834v-376.5q5.536-38.757,77.515-38.757H727.065V77.4H287.815q-127.347,0-179.023,69.209T57.116,337.631ZM727.065,858.087V647.69q-25.839-90.435-80.283-128.269T503.748,481.587v376.5Q494.521,895,426.234,895H57.116V1120.16H494.521q129.19,0,180.867-70.13T727.065,858.087ZM94.028,1193.98L44.2,1144.15H33.123V871.006H426.234q44.293,0,53.522-18.456V457.594q86.742,0,144.879,24.915t93.2,82.129l20.3,18.456q40.6,40.6,62.75,114.427V913.455q0,131.032-56.29,205.785t-194.71,74.74H94.028Zm-60.9-636.724V337.631q0-132.883,57.213-208.552T287.815,53.41H751.057V64.483l49.831,49.831V374.542H413.315q-57.214,0-59.059,22.147V789.8q-64.6,0-113.5-14.765T156.778,725.2l-23.993-22.147Q58.961,658.764,33.123,557.256Z"/>
</svg>
